<?xml version="1.0" encoding="UTF-8" standalone="no"?>
<!DOCTYPE svg PUBLIC "-//W3C//DTD SVG 1.1//EN" "http://www.w3.org/Graphics/SVG/1.1/DTD/svg11.dtd">
<svg width="100%" height="100%" viewBox="0 0 512 512" version="1.1" xmlns="http://www.w3.org/2000/svg" xmlns:xlink="http://www.w3.org/1999/xlink" xml:space="preserve" xmlns:serif="http://www.serif.com/" style="fill-rule:evenodd;clip-rule:evenodd;stroke-linejoin:round;stroke-miterlimit:2;">
    <path d="M319.002,403.099C299.67,411.4 278.368,416 256,416C240.387,416 225.294,413.759 211.023,409.581L191.152,322.965L319.002,403.099ZM196.535,404.567C161.981,390.71 133.367,365.139 115.614,332.77L162.794,257.496L196.535,404.567ZM404.567,315.465C390.71,350.019 365.139,378.633 332.77,396.386L257.496,349.206L404.567,315.465ZM403.099,192.998C411.4,212.33 416,233.632 416,256C416,271.613 413.759,286.706 409.581,300.977L322.965,320.848L403.099,192.998ZM108.901,319.002C100.6,299.67 96,278.368 96,256C96,240.387 98.241,225.294 102.419,211.023L189.035,191.152L108.901,319.002ZM315.465,107.433C350.019,121.29 378.633,146.861 396.386,179.23L349.206,254.504L315.465,107.433ZM254.504,162.794L107.433,196.535C121.29,161.981 146.861,133.367 179.23,115.614L254.504,162.794ZM192.998,108.901C212.33,100.6 233.632,96 256,96C271.613,96 286.706,98.241 300.977,102.419L320.848,189.035L192.998,108.901Z" style="fill:rgb(58,82,255);"/>
    <path d="M64,448L176,448L176,480L32,480L32,336L64,336L64,448ZM480,480L336,480L336,448L448,448L448,336L480,336L480,480ZM480,176L448,176L448,64L336,64L336,32L480,32L480,176ZM176,32L176,64L64,64L64,176L32,176L32,32L176,32Z" style="fill:rgb(58,82,255);"/>
</svg>
